<svg xmlns="http://www.w3.org/2000/svg" xmlns:xlink="http://www.w3.org/1999/xlink" version="1.1" x="0px" y="0px" viewBox="0 0 32 40" style="enable-background:new 0 0 32 32;" xml:space="preserve"><path d="M16.03,16.09C12.6,19.8,8.72,24,3,24c-0.55,0-1-0.45-1-1s0.45-1,1-1c4.84,0,8.26-3.69,11.56-7.26C17.76,11.27,20.79,8,25,8  h1.59l-2.29-2.29c-0.39-0.39-0.39-1.02,0-1.41s1.02-0.39,1.41,0l4,4c0.39,0.39,0.39,1.02,0,1.41l-4,4C25.51,13.9,25.26,14,25,14  s-0.51-0.1-0.71-0.29c-0.39-0.39-0.39-1.02,0-1.41L26.59,10H25C21.66,10,18.92,12.96,16.03,16.09z M25.71,18.29  c-0.39-0.39-1.02-0.39-1.41,0s-0.39,1.02,0,1.41L26.59,22H25c-2.64,0-4.83-1.82-6.79-3.79c-0.39-0.39-1.02-0.39-1.41,0  s-0.39,1.02,0,1.41C18.96,21.79,21.62,24,25,24h1.59l-2.29,2.29c-0.39,0.39-0.39,1.02,0,1.41C24.49,27.9,24.74,28,25,28  s0.51-0.1,0.71-0.29l4-4c0.39-0.39,0.39-1.02,0-1.41L25.71,18.29z M3,10c2.81,0,5.36,1.19,8.26,3.87c0.19,0.18,0.44,0.27,0.68,0.27  c0.27,0,0.54-0.11,0.73-0.32c0.38-0.41,0.35-1.04-0.06-1.41C10.4,10.35,7.3,8,3,8C2.45,8,2,8.45,2,9S2.45,10,3,10z"/><text x="0" y="47" fill="#000000" font-size="5px" font-weight="bold" font-family="'Helvetica Neue', Helvetica, Arial-Unicode, Arial, Sans-serif">Created by Sebastian Belalcazar Lareo</text><text x="0" y="52" fill="#000000" font-size="5px" font-weight="bold" font-family="'Helvetica Neue', Helvetica, Arial-Unicode, Arial, Sans-serif">from the Noun Project</text></svg>